{"title":"Slave Tears Of Rome Part One (2011) DVDRip XviD","uid":7337088,"size":1264879616,"categoryP":"video","categoryS":"movies","magnet":"?xt=urn:btih:47d8a7e55b857dfb982c4e0cd53758983518c87c&amp;dn=Slave+Tears+Of+Rome+Part+One+%282011%29+DVDRip+XviD&amp;tr=udp%3A%2F%2Ftracker.openbittorrent.com%3A80&amp;tr=udp%3A%2F%2Fopen.demonii.com%3A1337&amp;tr=udp%3A%2F%2Ftracker.coppersurfer.tk%3A6969&amp;tr=udp%3A%2F%2Fexodus.desync.com%3A6969","seeders":3,"leechers":1,"uploader":"Horrorspoke","files":1,"time":1339098739,"description":"PLOT:\n\nErotic and passionate adventures in this new thriller from the acclaimed ''Bound Heat'' series. In ancient Roman Empire is the ultimate evil stepmother Julia: beautiful and deceitful. She sells her own stepdaughter Nora as a white slave to Anthea. Nora is subject sadistic and erotic games as only the Romans could think of ...\n\nNFO:\n\n\nGeneral\nComplete name                    : C:UsersHomeDesktopTorrentsslave_tears_rome.avi\nFormat                           : AVI\nFormat/Info                      : Audio Video Interleave\nFile size                        : 1.18 GiB\nDuration                         : 1h 23mn\nOverall bit rate                 : 2 016 Kbps\n\nVideo\nID                               : 0\nFormat                           : mp43\nCodec ID                         : mp43\nDuration                         : 1h 23mn\nBit rate                         : 1 922 Kbps\nWidth                            : 720 pixels\nHeight                           : 404 pixels\nDisplay aspect ratio             : 16:9\nFrame rate                       : 29.970 fps\nBits/(Pixel*Frame)               : 0.221\nStream size                      : 1.12 GiB (95%)\n\nAudio\nID                               : 1\nFormat                           : MPEG Audio\nFormat version                   : Version 1\nFormat profile                   : Layer 3\nMode                             : Joint stereo\nMode extension                   : MS Stereo\nCodec ID                         : 55\nCodec ID/Hint                    : MP3\nDuration                         : 1h 23mn\nBit rate mode                    : Constant\nBit rate                         : 80.0 Kbps\nChannel(s)                       : 2 channels\nSampling rate                    : 44.1 KHz\nCompression mode                 : Lossy\nStream size                      : 47.9 MiB (4%)\nAlignment                        : Aligned on interleaves\nInterleave, duration             : 26 ms (0.78 video frame)\nWriting library                  : LAME3.98.2\n\nSCREENS:\n\n &lt;a href=&quot;\nhttp://www.myimghost.com/images/8NnFC.png&quot; rel=&quot;nofollow&quot; target=&quot;_NEW&quot;&gt;\nhttp://www.myimghost.com/images/8NnFC.png&lt;/a&gt; &lt;a href=&quot;\nhttp://www.myimghost.com/images/1x2jK.png&quot; rel=&quot;nofollow&quot; target=&quot;_NEW&quot;&gt;\nhttp://www.myimghost.com/images/1x2jK.png&lt;/a&gt; &lt;a href=&quot;\nhttp://www.myimghost.com/images/jTvOs.png&quot; rel=&quot;nofollow&quot; target=&quot;_NEW&quot;&gt;\nhttp://www.myimghost.com/images/jTvOs.png&lt;/a&gt;\n\n\nSEED AND ENJOY!!!","torrent":{"xt":"urn:btih:47d8a7e55b857dfb982c4e0cd53758983518c87c","amp;dn":"Slave+Tears+Of+Rome+Part+One+%282011%29+DVDRip+XviD","amp;tr":["udp%3A%2F%2Ftracker.openbittorrent.com%3A80","udp%3A%2F%2Fopen.demonii.com%3A1337","udp%3A%2F%2Ftracker.coppersurfer.tk%3A6969","udp%3A%2F%2Fexodus.desync.com%3A6969"],"infoHash":"47d8a7e55b857dfb982c4e0cd53758983518c87c","infoHashBuffer":{"type":"Buffer","data":[71,216,167,229,91,133,125,251,152,44,78,12,213,55,88,152,53,24,200,124]},"announce":[],"urlList":[]}}